<svg width="24" height="24" viewBox="0 0 24 24" fill="none" xmlns="http://www.w3.org/2000/svg">
<path d="M10.1236 8.98938V15.7318C10.1314 16.2249 10.3327 16.6951 10.6842 17.041C11.0356 17.3869 11.5089 17.5808 12.002 17.5808C12.4951 17.5808 12.9684 17.3869 13.3198 17.041C13.6713 16.6951 13.8726 16.2249 13.8804 15.7318L13.8865 6.89422C13.8916 6.47282 13.813 6.05458 13.6553 5.66378C13.4975 5.27297 13.2638 4.91735 12.9676 4.61755C12.6714 4.31774 12.3187 4.07971 11.9298 3.91725C11.5409 3.7548 11.1237 3.67114 10.7023 3.67114C10.2808 3.67114 9.86357 3.7548 9.47471 3.91725C9.08584 4.07971 8.73309 4.31774 8.4369 4.61755C8.14071 4.91735 7.90698 5.27297 7.74925 5.66378C7.59152 6.05458 7.51293 6.47282 7.51805 6.89422V15.7914C7.50946 16.3846 7.6189 16.9737 7.84 17.5243C8.06109 18.0749 8.38944 18.5761 8.80595 18.9987C9.22246 19.4212 9.71881 19.7568 10.2662 19.9858C10.8135 20.2149 11.4009 20.3328 11.9943 20.3328C12.5876 20.3328 13.175 20.2149 13.7224 19.9858C14.2697 19.7568 14.7661 19.4212 15.1826 18.9987C15.5991 18.5761 15.9274 18.0749 16.1485 17.5243C16.3696 16.9737 16.4791 16.3846 16.4705 15.7914V7.4773" stroke="black" stroke-width="1.49989" stroke-miterlimit="10" stroke-linecap="round"/>
</svg>
