<svg width="11" height="17" viewBox="0 0 11 17" fill="none" xmlns="http://www.w3.org/2000/svg">
<path d="M2.18156 8.50005V4.10005C2.18156 3.22483 2.53118 2.38547 3.15351 1.7666C3.77584 1.14773 4.6199 0.800049 5.5 0.800049C6.3801 0.800049 7.22416 1.14773 7.84649 1.7666C8.46882 2.38547 8.81844 3.22483 8.81844 4.10005V8.50005C8.81844 9.37526 8.46882 10.2146 7.84649 10.8335C7.22416 11.4524 6.3801 11.8 5.5 11.8C4.6199 11.8 3.77584 11.4524 3.15351 10.8335C2.53118 10.2146 2.18156 9.37526 2.18156 8.50005ZM10.5053 8.50692C10.3606 8.49142 10.2156 8.53324 10.1018 8.62333C9.98787 8.71341 9.91428 8.8445 9.89693 8.98817C9.77548 10.0633 9.25996 11.0563 8.44886 11.7773C7.63776 12.4984 6.58795 12.897 5.5 12.897C4.41205 12.897 3.36224 12.4984 2.55114 11.7773C1.74004 11.0563 1.22452 10.0633 1.10307 8.98817C1.08572 8.8445 1.01213 8.71341 0.898246 8.62333C0.784365 8.53324 0.639371 8.49142 0.494692 8.50692C0.422178 8.51375 0.351769 8.53493 0.287609 8.56922C0.223449 8.60351 0.166835 8.65022 0.121098 8.70659C0.0753608 8.76296 0.041425 8.82786 0.0212876 8.89747C0.00115012 8.96709 -0.00478217 9.04 0.00384002 9.11192C0.145289 10.3598 0.713485 11.5215 1.61332 12.4026C2.51316 13.2837 3.69002 13.8306 4.94693 13.9519V15.65C4.94693 15.7959 5.0052 15.9358 5.10892 16.039C5.21264 16.1421 5.35332 16.2 5.5 16.2C5.64668 16.2 5.78736 16.1421 5.89108 16.039C5.9948 15.9358 6.05307 15.7959 6.05307 15.65V13.9519C7.30998 13.8306 8.48684 13.2837 9.38668 12.4026C10.2865 11.5215 10.8547 10.3598 10.9962 9.11192C11.0048 9.04 10.9988 8.96709 10.9787 8.89747C10.9586 8.82786 10.9246 8.76296 10.8789 8.70659C10.8332 8.65022 10.7766 8.60351 10.7124 8.56922C10.6482 8.53493 10.5778 8.51375 10.5053 8.50692Z" fill="black"/>
</svg>
