<svg width="20" height="20" viewBox="0 0 20 20" fill="none" xmlns="http://www.w3.org/2000/svg">
<path d="M19.7406 19.125C19.6765 19.24 19.5826 19.3355 19.4687 19.4015C19.3549 19.4675 19.2253 19.5015 19.0937 19.5H0.906248C0.774659 19.5015 0.645107 19.4675 0.531257 19.4015C0.417406 19.3355 0.323476 19.24 0.259373 19.125C0.190665 19.012 0.154327 18.8823 0.154327 18.75C0.154327 18.6178 0.190665 18.4881 0.259373 18.375C1.65881 15.9643 3.89884 14.1549 6.55 13.2938C5.27923 12.5381 4.29172 11.3862 3.73915 10.0148C3.18659 8.6435 3.09954 7.12868 3.49138 5.70309C3.88323 4.2775 4.73228 3.01998 5.90812 2.12373C7.08396 1.22748 8.52153 0.742065 10 0.742065C11.4785 0.742065 12.916 1.22748 14.0919 2.12373C15.2677 3.01998 16.1168 4.2775 16.5086 5.70309C16.9005 7.12868 16.8134 8.6435 16.2608 10.0148C15.7083 11.3862 14.7208 12.5381 13.45 13.2938C16.1012 14.1549 18.3412 15.9643 19.7406 18.375C19.8093 18.4881 19.8457 18.6178 19.8457 18.75C19.8457 18.8823 19.8093 19.012 19.7406 19.125Z" fill="#8A91A8"/>
</svg>
