<svg width="20" height="21" viewBox="0 0 20 21" fill="none" xmlns="http://www.w3.org/2000/svg">
<path d="M14.5 9.37502C14.5 10.4875 14.1701 11.5751 13.552 12.5001C12.9339 13.4251 12.0554 14.1461 11.0276 14.5718C9.99976 14.9976 8.86876 15.109 7.77762 14.8919C6.68647 14.6749 5.6842 14.1392 4.89752 13.3525C4.11085 12.5658 3.57512 11.5635 3.35808 10.4724C3.14104 9.38126 3.25243 8.25026 3.67818 7.22243C4.10392 6.19459 4.82489 5.31609 5.74992 4.69801C6.67494 4.07992 7.76248 3.75002 8.875 3.75002C10.3668 3.75002 11.7976 4.34266 12.8525 5.39755C13.9074 6.45244 14.5 7.88318 14.5 9.37502ZM19.5344 20.0344C19.391 20.173 19.1994 20.2505 19 20.2505C18.8006 20.2505 18.609 20.173 18.4656 20.0344L14.4156 15.975C12.7099 17.4077 10.517 18.1266 8.29413 17.9817C6.07128 17.8369 3.99018 16.8394 2.48486 15.1975C0.979535 13.5555 0.166219 11.3958 0.214537 9.16878C0.262856 6.94175 1.16908 4.81934 2.7442 3.24422C4.31932 1.6691 6.44173 0.762879 8.66876 0.71456C10.8958 0.666242 13.0555 1.47956 14.6975 2.98488C16.3394 4.4902 17.3368 6.57131 17.4817 8.79415C17.6266 11.017 16.9077 13.2099 15.475 14.9156L19.5344 18.9656C19.6752 19.1078 19.7542 19.2999 19.7542 19.5C19.7542 19.7002 19.6752 19.8922 19.5344 20.0344ZM8.875 16.5C10.2842 16.5 11.6617 16.0822 12.8334 15.2992C14.0051 14.5163 14.9184 13.4036 15.4576 12.1016C15.9969 10.7997 16.138 9.36712 15.8631 7.985C15.5882 6.60289 14.9096 5.33334 13.9131 4.33689C12.9167 3.34044 11.6471 2.66185 10.265 2.38693C8.8829 2.11201 7.4503 2.25311 6.14838 2.79238C4.84646 3.33166 3.73368 4.24489 2.95078 5.41659C2.16787 6.58829 1.75 7.96583 1.75 9.37502C1.75248 11.2639 2.50394 13.0748 3.8396 14.4104C5.17526 15.7461 6.98609 16.4975 8.875 16.5Z" fill="#8A91A8"/>
</svg>
