<svg width="14" height="14" viewBox="0 0 14 14" fill="none" xmlns="http://www.w3.org/2000/svg">
<path d="M0.53125 11.5C0.53125 10.7044 0.84732 9.94129 1.40993 9.37868C1.97254 8.81607 2.7356 8.5 3.53125 8.5H9.53125C10.3269 8.5 11.09 8.81607 11.6526 9.37868C12.2152 9.94129 12.5312 10.7044 12.5312 11.5C12.5312 11.8978 12.3732 12.2794 12.0919 12.5607C11.8106 12.842 11.4291 13 11.0312 13H2.03125C1.63343 13 1.25189 12.842 0.97059 12.5607C0.689285 12.2794 0.53125 11.8978 0.53125 11.5Z" stroke="#B3B3B3" stroke-linejoin="round"/>
<path d="M6.53125 5.5C7.77389 5.5 8.78125 4.49264 8.78125 3.25C8.78125 2.00736 7.77389 1 6.53125 1C5.28861 1 4.28125 2.00736 4.28125 3.25C4.28125 4.49264 5.28861 5.5 6.53125 5.5Z" stroke="#B3B3B3"/>
</svg>
